# xmcd CD database file
#
# Track frame offsets:
#	150
#	18462
#	31961
#	43865
#	56068
#	68982
#	80469
#	92983
#	109324
#	124776
#	138350
#	147061
#	158012
#	167831
#	179025
#	188561
#	199592
#	213251
#	223115
#	237210
#
# Disc length: 3280 seconds
#
# Revision: 1
# Processed by: cddbd v1.5.2PL0 Copyright (c) Steve Scherf et al.
# Submitted via: CDex 1.70beta2
#
DISCID=250cce14
DTITLE=Casa musica - Ballroom Stars 2 CD2
DYEAR=2008
DGENRE=Ballroom
TTITLE0=Wade in the Water (SF 28)
TTITLE1=A Walkin' Thing (SF 27)
TTITLE2=I Thought About You (SF 28)
TTITLE3=Lullaby of the Leaves (SF 28)
TTITLE4=The Best Is Yet To Come (SF 28)
TTITLE5=Mean To Me (SF 28)
TTITLE6=Miss Brown (SF 28)
TTITLE7=Things Ain't What They Used To Be (SF 29)
TTITLE8=I've Got You Under My Skin (SF 29)
TTITLE9=Exodus Song (SF 28)
TTITLE10=My Personal Property (QU 49)
TTITLE11=Blue Skies (QU 50)
TTITLE12=Swingin' The Blues (QU 51)
TTITLE13=So Long, Dearie (QU 50)
TTITLE14=Too Darn Hot (QU 50)
TTITLE15=Peroxide Swing (QU 51)
TTITLE16=Just One Of Those Things (QU 50)
TTITLE17=Leader of the Big Time Band (QU 50)
TTITLE18=Minor Swing (QU 50)
TTITLE19=I Can't Be Bothered Now (QU 49)
EXTD=YEAR: 2008
EXTT0=
EXTT1=
EXTT2=
EXTT3=
EXTT4=
EXTT5=
EXTT6=
EXTT7=
EXTT8=
EXTT9=
EXTT10=
EXTT11=
EXTT12=
EXTT13=
EXTT14=
EXTT15=
EXTT16=
EXTT17=
EXTT18=
EXTT19=
PLAYORDER=
